# xmcd CD database file
#
# Track frame offsets:
#	150
#	19293
#	35324
#	49262
#	61908
#	75826
#	92597
#	106065
#	127402
#	142559
#	156730
#	173219
#	187628
#	199225
#	218656
#	230883
#
# Disc length: 3235 seconds
#
# Revision: 0
# Processed by: cddbd v1.5.2PL0 Copyright (c) Steve Scherf et al.
# Submitted via: CDex 1.40Release
#
DISCID=d30ca110
DTITLE=Dony and Nando - Anjo Azul
DYEAR=2008
DGENRE=Country
TTITLE0=Anjo Azul
TTITLE1=Tô Em Promoção
TTITLE2=Paixão E Rancor
TTITLE3=Mulher De Motel
TTITLE4=Viciado Em Gandaia
TTITLE5=Papeis Antigos
TTITLE6=Vem Cá Dançar Com A Galera De Peão
TTITLE7=Juro
TTITLE8=O Trabalho Ainda Vai Me Matar
TTITLE9=Garçom Pode Mandar Outra Pra Mim
TTITLE10=Alguém Que Não Vai Voltar
TTITLE11=Cada Vez Mais
TTITLE12=O Caminhoneiro
TTITLE13=Passarinho Prisioneiro
TTITLE14=Baile Animado
TTITLE15=Minha Sentença
EXTD=YEAR: 2008 ID3G: 2
EXTT0=
EXTT1=
EXTT2=
EXTT3=
EXTT4=
EXTT5=
EXTT6=
EXTT7=
EXTT8=
EXTT9=
EXTT10=
EXTT11=
EXTT12=
EXTT13=
EXTT14=
EXTT15=
PLAYORDER=
